<svg width="2511" height="2773" viewBox="0 0 2511 2773" fill="none" xmlns="http://www.w3.org/2000/svg">
<path d="M376.944 1693.59L373.579 1689.24L373.579 1689.24L376.944 1693.59ZM954.839 1494.07L959.214 1497.41C960.646 1495.53 960.717 1492.94 959.39 1490.98C958.063 1489.03 955.635 1488.14 953.359 1488.78L954.839 1494.07ZM6.26623 2334.25L0.875595 2333.16L6.26623 2334.25ZM1241.66 2764.76L1241.9 2759.27L1241.9 2759.27L1241.66 2764.76ZM2477.54 2451.18L2482.47 2453.62L2482.47 2453.62L2477.54 2451.18ZM2214.23 1746.53L2218.17 1742.69L2218.17 1742.69L2214.23 1746.53ZM1627.44 1493.66L1629.04 1488.4C1628.52 1488.24 1627.98 1488.16 1627.44 1488.16V1493.66ZM1617.99 1493.66V1488.16C1615.99 1488.16 1614.15 1489.25 1613.18 1490.99C1612.21 1492.74 1612.26 1494.88 1613.32 1496.57L1617.99 1493.66ZM1649.85 1567.41L1655.33 1567.89C1655.37 1567.36 1655.34 1566.82 1655.24 1566.3L1649.85 1567.41ZM1535.81 1790.8L1532.76 1786.23L1532.76 1786.23L1535.81 1790.8ZM1511.07 1808.97L1514.77 1813.04L1514.77 1813.04L1511.07 1808.97ZM1242.09 1855.23L1241.73 1860.72L1241.73 1860.72L1242.09 1855.23ZM925.332 1680.48L930.43 1678.42L930.43 1678.42L925.332 1680.48ZM925.332 1530.92L921.132 1527.37L921.129 1527.37L925.332 1530.92ZM876.846 665.485L871.35 665.699L871.354 665.805L871.362 665.911L876.846 665.485ZM871.853 873.116L866.44 874.087L866.447 874.127L866.455 874.167L871.853 873.116ZM928.215 1146.48L932.589 1143.15L932.589 1143.15L928.215 1146.48ZM1156.2 1388.68L1153.27 1393.33L1153.27 1393.33L1156.2 1388.68ZM1422.2 1363.35L1426.23 1367.09L1426.23 1367.09L1422.2 1363.35ZM1589.75 1160.21L1594.73 1162.55L1594.73 1162.55L1589.75 1160.21ZM1633.41 521.68L1627.94 522.303L1627.94 522.303L1633.41 521.68ZM1234.54 376.755L1232.65 371.591L1232.65 371.591L1234.54 376.755ZM1013 530.403L1010.5 525.503L1010.5 525.503L1013 530.403ZM895.508 590.048L899.691 593.619L899.691 593.619L895.508 590.048ZM806.618 709.706L807.581 704.291L807.581 704.291L806.618 709.706ZM767.087 739.133L772.5 738.16L767.087 739.133ZM798.196 834.763L792.727 835.339L792.727 835.339L798.196 834.763ZM825.55 925.36L822.231 929.746L822.231 929.746L825.55 925.36ZM1685.52 747.113L1682.38 742.597L1682.38 742.597L1685.52 747.113ZM1749.52 716.252L1745.22 719.679L1745.22 719.679L1749.52 716.252ZM1718.3 885.548L1712.81 885.178L1712.81 885.178L1718.3 885.548ZM1695.11 955.628L1699.48 958.964L1699.48 958.964L1695.11 955.628ZM1653.22 1023.73L1652.95 1029.22L1652.95 1029.22L1653.22 1023.73ZM999.878 1422.18L994.608 1420.61L994.608 1420.61L999.878 1422.18ZM986.908 1240.05L991.245 1236.67C989.711 1234.7 987.043 1234.01 984.748 1234.99C982.453 1235.97 981.106 1238.37 981.466 1240.84L986.908 1240.05ZM1600.83 1469.12L1595.84 1471.43C1596.02 1471.84 1596.26 1472.22 1596.54 1472.57L1600.83 1469.12ZM1572.78 1365.63L1567.29 1365.86L1567.29 1365.86L1572.78 1365.63ZM1576.79 1187.36L1582.28 1187.61C1582.36 1186.03 1581.75 1184.5 1580.61 1183.4C1579.48 1182.31 1577.92 1181.75 1576.35 1181.88L1576.79 1187.36ZM1573.74 1187.6L1573.3 1182.12C1571.62 1182.26 1570.1 1183.15 1569.17 1184.54L1573.74 1187.6ZM1436.2 1348.46L1432.2 1344.68L1432.2 1344.68L1436.2 1348.46ZM1751.09 719.133L1745.96 721.125C1747.02 723.841 1750.01 725.263 1752.78 724.367L1751.09 719.133ZM1765.64 717.695L1762.2 721.992C1763.67 723.167 1765.64 723.509 1767.42 722.898C1769.2 722.287 1770.55 720.808 1770.98 718.978L1765.64 717.695ZM1723.36 213.569L1718.83 216.693L1718.83 216.693L1723.36 213.569ZM1394.39 23.3234L1392.82 28.5969L1392.83 28.597L1394.39 23.3234ZM1392.02 22.6221L1390.46 27.8954L1390.46 27.8956L1392.02 22.6221ZM1160.22 11.6329L1161.25 17.0351L1161.25 17.0351L1160.22 11.6329ZM1103.96 55.8976L1099.86 52.2213L1099.86 52.2213L1103.96 55.8976ZM1077.84 80.0068L1079.66 85.1962L1079.66 85.1962L1077.84 80.0068ZM1045.66 79.3413L1045.15 84.817L1045.15 84.817L1045.66 79.3413ZM931.569 90.9481L934.218 95.7681L934.218 95.7681L931.569 90.9481ZM859.417 175.029L854.609 172.358L854.609 172.358L859.417 175.029ZM849.428 190.137L848.456 184.724L848.456 184.724L849.428 190.137ZM773.752 250.492L768.464 248.981L768.464 248.981L773.752 250.492ZM772.751 270.824L778.237 270.425L778.237 270.425L772.751 270.824ZM756.162 340.17L751.298 337.603L751.298 337.603L756.162 340.17ZM739.484 519.23L744.954 518.659L739.484 519.23ZM781.829 702.267L776.515 703.686C777.234 706.377 779.851 708.106 782.608 707.711C785.366 707.316 787.392 704.922 787.327 702.138L781.829 702.267ZM808.045 710.038L805.245 714.772C805.648 715.011 806.08 715.197 806.531 715.326L808.045 710.038ZM869.699 861.698L864.303 862.762C864.804 865.302 867.008 867.149 869.597 867.197L869.699 861.698ZM873.051 861.761L872.948 867.26C875.834 867.314 878.27 865.129 878.529 862.255L873.051 861.761ZM951.473 557.843L953.531 562.943L953.531 562.943L951.473 557.843ZM1100.81 466.32L1097.31 462.077L1097.31 462.077L1100.81 466.32ZM1643.03 876.149L1637.53 875.989C1637.48 877.457 1638.03 878.881 1639.04 879.944C1640.06 881.007 1641.45 881.621 1642.92 881.648L1643.03 876.149ZM1643.72 876.162L1643.61 881.661C1646.44 881.714 1648.85 879.612 1649.18 876.803L1643.72 876.162ZM1703.32 734.389L1700.09 729.938L1700.09 729.938L1703.32 734.389ZM1179.49 1182.01C1176.53 1181.3 1173.56 1183.13 1172.86 1186.08C1172.15 1189.03 1173.97 1192 1176.93 1192.71L1179.49 1182.01ZM1266.38 1199.87L1266.42 1205.37L1266.42 1205.37L1266.38 1199.87ZM1351.47 1192.71C1354.43 1191.99 1356.24 1189.02 1355.53 1186.07C1354.81 1183.11 1351.84 1181.3 1348.89 1182.01L1351.47 1192.71ZM987.107 816.806C984.081 816.546 981.417 818.788 981.156 821.814C980.896 824.841 983.138 827.505 986.165 827.765L987.107 816.806ZM1070.79 829.523L1070.32 835.003C1070.64 835.031 1070.96 835.03 1071.28 835.002L1070.79 829.523ZM1159.1 827.125C1162.13 826.854 1164.36 824.181 1164.09 821.156C1163.82 818.13 1161.14 815.898 1158.12 816.169L1159.1 827.125ZM1334.42 813.351C1331.39 813.091 1328.73 815.333 1328.47 818.359C1328.21 821.386 1330.45 824.05 1333.48 824.31L1334.42 813.351ZM1418.1 826.068L1417.63 831.548C1417.95 831.576 1418.27 831.575 1418.59 831.546L1418.1 826.068ZM1506.41 823.67C1509.44 823.399 1511.67 820.726 1511.4 817.701C1511.13 814.675 1508.46 812.443 1505.43 812.714L1506.41 823.67ZM1257.5 865.926C1257.78 862.902 1255.56 860.219 1252.54 859.933C1249.52 859.647 1246.83 861.866 1246.55 864.89L1257.5 865.926ZM1236.21 1032.6L1230.74 1032.08C1230.53 1034.28 1231.65 1036.38 1233.59 1037.44L1236.21 1032.6ZM1262.05 1052.87C1264.72 1054.32 1268.06 1053.33 1269.51 1050.66C1270.95 1047.99 1269.96 1044.65 1267.29 1043.2L1262.05 1052.87ZM380.309 1697.94C395.009 1686.57 427.593 1671.32 471.668 1654C515.481 1636.77 569.937 1617.76 627.778 1598.75C743.451 1560.73 872.417 1522.81 956.318 1499.37L953.359 1488.78C869.35 1512.24 740.217 1550.21 624.344 1588.3C566.413 1607.34 511.734 1626.43 467.644 1643.76C423.815 1660.99 389.727 1676.75 373.579 1689.24L380.309 1697.94ZM11.6569 2335.34C35.5351 2217.4 108.435 2072.88 185.321 1950.08C223.718 1888.75 263.012 1833 297.5 1788.88C332.096 1744.62 361.562 1712.45 380.309 1697.94L373.579 1689.24C353.652 1704.66 323.467 1737.8 288.834 1782.1C254.094 1826.55 214.582 1882.61 175.998 1944.24C98.9214 2067.34 25.1562 2213.23 0.875595 2333.16L11.6569 2335.34ZM1241.9 2759.27C935.233 2745.34 620.893 2667.84 386.298 2578.87C268.986 2534.37 171.834 2487.09 105.634 2443.59C72.5059 2421.82 47.3793 2401.16 31.3429 2382.45C15.1295 2363.54 9.14462 2347.75 11.6569 2335.34L0.875595 2333.16C-2.68117 2350.73 6.17896 2370 22.9921 2389.61C39.9822 2409.43 66.0636 2430.75 99.5929 2452.78C166.707 2496.88 264.665 2544.5 382.397 2589.15C617.893 2678.47 933.385 2756.27 1241.41 2770.26L1241.9 2759.27ZM2472.61 2448.74C2466.02 2462.07 2451.59 2477.62 2429.46 2494.63C2407.45 2511.54 2378.27 2529.56 2342.81 2547.95C2271.89 2584.72 2176.22 2622.76 2063.35 2656.37C1837.61 2723.59 1543.56 2772.97 1241.9 2759.27L1241.41 2770.26C1544.48 2784.02 1839.77 2734.43 2066.49 2666.91C2179.85 2633.15 2276.19 2594.88 2347.87 2557.71C2383.7 2539.14 2413.48 2520.78 2436.16 2503.35C2458.73 2486 2474.76 2469.21 2482.47 2453.62L2472.61 2448.74ZM2210.3 1750.37C2261.37 1802.68 2355.68 1920.09 2422.79 2053.37C2490.08 2187.01 2529.04 2334.66 2472.61 2448.74L2482.47 2453.62C2541.39 2334.49 2500.11 2182.47 2432.61 2048.42C2364.93 1914 2269.91 1795.69 2218.17 1742.69L2210.3 1750.37ZM1625.84 1498.92C1706.39 1523.48 1832.37 1565.58 1948.45 1612.05C2006.49 1635.28 2061.97 1659.57 2108.02 1683.28C2154.22 1707.06 2190.4 1729.99 2210.3 1750.37L2218.17 1742.69C2196.94 1720.94 2159.37 1697.34 2113.05 1673.5C2066.57 1649.57 2010.74 1625.14 1952.53 1601.84C1836.11 1555.23 1709.82 1513.03 1629.04 1488.4L1625.84 1498.92ZM1617.99 1499.16H1627.44V1488.16H1617.99V1499.16ZM1613.32 1496.57C1625.73 1516.46 1639.24 1543.04 1644.46 1568.51L1655.24 1566.3C1649.63 1538.97 1635.35 1511.1 1622.65 1490.75L1613.32 1496.57ZM1644.37 1566.92C1637.43 1644.62 1619.5 1692.6 1598.56 1724.44C1577.65 1756.25 1553.46 1772.42 1532.76 1786.23L1538.86 1795.38C1559.69 1781.48 1585.53 1764.29 1607.75 1730.48C1629.95 1696.72 1648.28 1646.85 1655.33 1567.89L1644.37 1566.92ZM1532.76 1786.23C1523.51 1792.39 1514.66 1798.28 1507.37 1804.91L1514.77 1813.04C1521.33 1807.09 1529.44 1801.66 1538.86 1795.38L1532.76 1786.23ZM1507.37 1804.91C1498.77 1812.73 1484.61 1820.03 1466.05 1826.42C1447.6 1832.77 1425.27 1838.06 1400.75 1842.1C1351.69 1850.17 1294.28 1853.14 1242.45 1849.74L1241.73 1860.72C1294.41 1864.18 1352.65 1861.16 1402.53 1852.95C1427.48 1848.85 1450.44 1843.43 1469.63 1836.82C1488.71 1830.25 1504.53 1822.36 1514.77 1813.04L1507.37 1804.91ZM1242.45 1849.74C1191 1846.37 1122.74 1828.18 1062.31 1798.26C1001.69 1768.26 950.127 1727.07 930.43 1678.42L920.234 1682.54C941.462 1734.98 996.026 1777.73 1057.43 1808.12C1119.01 1838.6 1188.68 1857.24 1241.73 1860.72L1242.45 1849.74ZM930.43 1678.42C898.239 1598.91 917.544 1548.67 929.534 1534.47L921.129 1527.37C905.836 1545.49 886.944 1600.32 920.234 1682.54L930.43 1678.42ZM929.531 1534.47C937.343 1525.23 948.171 1511.9 959.214 1497.41L950.464 1490.74C939.539 1505.08 928.828 1518.27 921.132 1527.37L929.531 1534.47ZM871.362 665.911C874.543 706.875 871.543 831.664 866.396 872.427L877.31 873.805C882.55 832.302 885.568 706.766 882.329 665.06L871.362 665.911ZM923.842 1149.82C924.003 1150.03 924.386 1150.66 925.027 1152C925.632 1153.26 926.331 1154.87 927.171 1156.85C928.828 1160.75 930.955 1165.9 933.652 1171.72C939.059 1183.38 946.867 1197.96 958.502 1212.01L966.973 1204.99C956.163 1191.94 948.82 1178.28 943.632 1167.09C941.031 1161.48 939 1156.56 937.295 1152.55C936.455 1150.57 935.672 1148.76 934.952 1147.25C934.268 1145.82 933.483 1144.32 932.589 1143.15L923.842 1149.82ZM958.502 1212.01C980.702 1238.8 1023.24 1311.52 1153.27 1393.33L1159.13 1384.02C1030.95 1303.37 989.66 1232.37 966.973 1204.99L958.502 1212.01ZM1153.27 1393.33C1200.91 1423.31 1258.56 1428.11 1309.21 1419.94C1359.7 1411.8 1404.44 1390.59 1426.23 1367.09L1418.16 1359.61C1398.64 1380.67 1356.56 1401.17 1307.46 1409.08C1258.53 1416.97 1203.83 1412.15 1159.13 1384.02L1153.27 1393.33ZM1426.23 1367.09C1440.49 1351.71 1475.64 1315.39 1510.55 1275.72C1545.32 1236.22 1580.56 1192.62 1594.73 1162.55L1584.77 1157.87C1571.38 1186.29 1537.23 1228.76 1502.29 1268.45C1467.5 1307.99 1432.65 1343.99 1418.16 1359.61L1426.23 1367.09ZM1648.55 875.331C1649.58 830.757 1646.75 590.192 1638.87 521.057L1627.94 522.303C1635.73 590.65 1638.58 830.586 1637.55 875.076L1648.55 875.331ZM1638.87 521.057C1634.68 484.268 1603.31 449.082 1566.17 421.899C1528.79 394.531 1483.99 374.108 1450.35 367.456L1448.22 378.247C1479.96 384.525 1523.3 404.146 1559.68 430.775C1596.3 457.588 1624.3 490.351 1627.94 522.303L1638.87 521.057ZM1450.35 367.456C1384.93 354.518 1312.89 342.212 1232.65 371.591L1236.43 381.92C1313.55 353.683 1382.89 365.327 1448.22 378.247L1450.35 367.456ZM1232.65 371.591C1192.32 386.358 1151.88 417.406 1114.22 448.173C1076.13 479.287 1041.06 509.918 1010.5 525.503L1015.49 535.303C1047.42 519.022 1083.79 487.233 1121.18 456.692C1158.99 425.804 1198.09 395.961 1236.43 381.92L1232.65 371.591ZM1010.5 525.503C979.503 541.309 955.633 550.037 936.448 558.027C917.428 565.949 902.573 573.301 891.325 586.477L899.691 593.619C909.093 582.606 921.738 576.069 940.677 568.182C959.451 560.363 984 551.363 1015.49 535.303L1010.5 525.503ZM891.325 586.477C882.12 597.261 877.067 613.003 874.328 627.604C871.56 642.357 871.004 656.793 871.35 665.699L882.341 665.272C882.024 657.095 882.54 643.489 885.139 629.632C887.767 615.622 892.377 602.188 899.691 593.619L891.325 586.477ZM877.267 872.145C872.549 845.841 863.602 806.022 852.06 772.02C846.297 755.045 839.808 739.277 832.753 727.32C829.227 721.342 825.45 716.129 821.408 712.17C817.391 708.235 812.779 705.215 807.581 704.291L805.656 715.121C807.879 715.517 810.578 716.959 813.711 720.028C816.819 723.072 820.031 727.403 823.279 732.909C829.774 743.919 835.98 758.872 841.644 775.556C852.953 808.872 861.782 848.119 866.44 874.087L877.267 872.145ZM807.581 704.291C797.575 702.513 789.388 703.157 782.761 705.578C776.095 708.013 771.356 712.119 768.095 716.669C764.872 721.165 763.129 726.035 762.25 730.117C761.399 734.07 761.256 737.781 761.674 740.105L772.5 738.16C772.501 738.161 772.498 738.148 772.495 738.121C772.491 738.094 772.486 738.056 772.482 738.007C772.472 737.907 772.462 737.773 772.456 737.605C772.442 737.266 772.443 736.827 772.471 736.299C772.527 735.241 772.685 733.913 773.004 732.432C773.646 729.449 774.89 726.071 777.036 723.077C779.143 720.137 782.154 717.511 786.535 715.91C790.953 714.296 797.109 713.602 805.656 715.121L807.581 704.291ZM761.674 740.105C761.939 741.581 762.764 743.505 763.475 745.11C764.294 746.961 765.409 749.335 766.679 752.059C769.244 757.56 772.584 764.791 776.044 773.3C782.98 790.358 790.304 812.343 792.727 835.339L803.666 834.186C801.09 809.737 793.355 786.671 786.234 769.157C782.666 760.381 779.229 752.946 776.649 747.411C775.346 744.618 774.297 742.382 773.533 740.657C772.66 738.685 772.484 738.067 772.5 738.16L761.674 740.105ZM792.727 835.339C795.2 858.815 796.881 878.044 800.611 893.261C804.398 908.717 810.47 920.842 822.231 929.746L828.87 920.975C819.843 914.141 814.737 904.691 811.295 890.643C807.793 876.357 806.192 858.155 803.666 834.186L792.727 835.339ZM822.231 929.746C826.147 932.71 828.477 936.902 829.881 942.29C831.317 947.795 831.681 954.12 831.919 960.998C832.147 967.623 832.254 974.928 833.426 981.386C834.609 987.909 837.02 994.502 842.558 999.21L849.682 990.829C846.934 988.492 845.229 984.823 844.249 979.423C843.258 973.959 843.156 967.68 842.912 960.619C842.677 953.81 842.307 946.346 840.526 939.515C838.714 932.568 835.348 925.879 828.87 920.975L822.231 929.746ZM866.455 874.167C873.835 912.075 884.5 966.276 894.59 1016.45L905.374 1014.28C895.29 964.135 884.629 909.957 877.252 872.065L866.455 874.167ZM894.59 1016.45C901.428 1050.45 908.006 1082.62 913.119 1106.61C915.674 1118.6 917.871 1128.59 919.554 1135.74C920.393 1139.31 921.117 1142.23 921.701 1144.36C921.991 1145.42 922.265 1146.35 922.517 1147.1C922.642 1147.47 922.783 1147.86 922.94 1148.23C923.048 1148.48 923.338 1149.16 923.842 1149.82L932.589 1143.15C932.819 1143.45 932.95 1143.7 932.99 1143.77C933.018 1143.83 933.038 1143.87 933.048 1143.89C933.059 1143.91 933.065 1143.93 933.065 1143.93C933.065 1143.93 933.063 1143.92 933.056 1143.91C933.05 1143.89 933.041 1143.87 933.029 1143.84C933.006 1143.77 932.977 1143.69 932.94 1143.58C932.787 1143.13 932.577 1142.43 932.31 1141.45C931.779 1139.52 931.091 1136.75 930.261 1133.23C928.605 1126.18 926.428 1116.29 923.878 1104.32C918.778 1080.39 912.21 1048.27 905.374 1014.28L894.59 1016.45ZM842.558 999.21C850.451 1005.92 861.955 1016.77 872.604 1023.02C877.913 1026.13 883.9 1028.67 889.75 1028.43C892.806 1028.31 895.809 1027.44 898.517 1025.55C901.193 1023.69 903.296 1021.05 904.906 1017.81L895.058 1012.91C894.081 1014.88 893.08 1015.94 892.237 1016.52C891.426 1017.09 890.498 1017.4 889.314 1017.44C886.686 1017.55 882.961 1016.34 878.17 1013.53C868.618 1007.93 858.364 998.208 849.682 990.829L842.558 999.21ZM1647.3 895.688C1647.38 894.807 1647.45 893.942 1647.52 893.093L1636.55 892.21C1636.48 893.044 1636.41 893.893 1636.34 894.759L1647.3 895.688ZM1647.52 893.093C1648.09 886.001 1648.44 879.98 1648.55 875.331L1637.55 875.076C1637.45 879.43 1637.11 885.22 1636.55 892.21L1647.52 893.093ZM1647.3 895.66C1647.37 894.832 1647.44 893.985 1647.51 893.121L1636.55 892.182C1636.48 893.069 1636.41 893.937 1636.34 894.787L1647.3 895.66ZM1647.51 893.121C1649.32 872.073 1653.53 840.589 1660.55 812.172C1664.06 797.956 1668.23 784.672 1673.08 773.901C1678 762.961 1683.3 755.356 1688.66 751.629L1682.38 742.597C1674.5 748.075 1668.19 757.953 1663.05 769.388C1657.83 780.993 1653.47 794.977 1649.87 809.534C1642.68 838.662 1638.39 870.743 1636.55 892.182L1647.51 893.121ZM1688.66 751.629C1706.01 739.569 1719.02 729.257 1729.4 723.09C1734.56 720.025 1738.29 718.49 1740.93 718.147C1742.16 717.988 1742.95 718.115 1743.48 718.314C1743.99 718.501 1744.57 718.863 1745.22 719.679L1753.82 712.825C1752.07 710.632 1749.91 708.966 1747.32 708.003C1744.75 707.051 1742.1 706.903 1739.51 707.238C1734.54 707.884 1729.2 710.413 1723.78 713.633C1713 720.034 1698.81 731.173 1682.38 742.597L1688.66 751.629ZM1745.22 719.679C1745.61 720.168 1746.27 721.508 1746.84 724.24C1747.37 726.839 1747.71 730.172 1747.85 734.127C1748.11 742.027 1747.55 751.833 1746.5 762.045C1744.38 782.514 1740.37 803.808 1737.6 813.341L1748.16 816.416C1751.18 806.03 1755.29 784.03 1757.44 763.176C1758.52 752.726 1759.13 742.363 1758.84 733.754C1758.69 729.455 1758.32 725.448 1757.61 722.019C1756.93 718.722 1755.83 715.346 1753.82 712.825L1745.22 719.679ZM1737.6 813.341C1734.79 822.97 1729.07 836.545 1723.67 850.119C1721.02 856.801 1718.47 863.434 1716.52 869.36C1714.61 875.177 1713.11 880.752 1712.81 885.178L1723.79 885.917C1723.99 882.964 1725.09 878.506 1726.97 872.801C1728.81 867.205 1731.26 860.828 1733.9 854.178C1739.1 841.087 1745.16 826.707 1748.16 816.416L1737.6 813.341ZM1712.81 885.178C1712.35 892.021 1709.99 904.754 1706.06 918.005C1702.09 931.344 1696.77 944.38 1690.73 952.292L1699.48 958.964C1706.77 949.406 1712.55 934.782 1716.6 921.138C1720.68 907.406 1723.26 893.833 1723.79 885.917L1712.81 885.178ZM1690.73 952.292C1688.08 955.776 1687.42 960.457 1687.18 964.36C1686.94 968.418 1687.12 973.24 1687.15 977.527C1687.19 982.03 1687.08 986.267 1686.39 990.023C1685.71 993.77 1684.53 996.609 1682.76 998.623L1691 1005.9C1694.59 1001.84 1696.33 996.839 1697.22 991.992C1698.1 987.156 1698.19 982.044 1698.15 977.44C1698.11 972.621 1697.95 968.581 1698.16 965.02C1698.38 961.304 1698.99 959.61 1699.48 958.964L1690.73 952.292ZM1682.76 998.623C1679.67 1002.12 1677.72 1005.5 1676.18 1008.26C1674.55 1011.18 1673.6 1012.95 1672.31 1014.39C1670.38 1016.53 1666.81 1018.89 1653.49 1018.24L1652.95 1029.22C1667.29 1029.93 1675.17 1027.65 1680.48 1021.75C1682.81 1019.17 1684.42 1016.07 1685.79 1013.61C1687.24 1011 1688.73 1008.48 1691 1005.9L1682.76 998.623ZM1594.73 1162.55C1602.15 1146.78 1609.24 1122.73 1615.67 1095.33C1622.12 1067.83 1628 1036.59 1632.95 1006.24L1622.09 1004.47C1617.17 1034.66 1611.34 1065.64 1604.96 1092.82C1598.55 1120.1 1591.68 1143.2 1584.77 1157.87L1594.73 1162.55ZM1632.95 1006.24C1639.91 963.492 1645.04 922.357 1647.3 895.688L1636.34 894.759C1634.11 921.082 1629.02 961.929 1622.09 1004.47L1632.95 1006.24ZM1653.49 1018.24C1643.5 1017.74 1638.97 1014.78 1636.71 1012.27C1634.24 1009.55 1633.65 1006.64 1632.79 1003.77L1622.25 1006.93C1622.85 1008.94 1624.05 1014.68 1628.54 1019.65C1633.24 1024.84 1640.82 1028.62 1652.95 1029.22L1653.49 1018.24ZM1005.15 1423.76C1007.26 1416.68 1007.81 1404.76 1007.55 1390.81C1007.29 1376.6 1006.16 1359.51 1004.57 1341.58C1001.38 1305.71 996.283 1266.22 992.351 1239.26L981.466 1240.84C985.379 1267.68 990.442 1306.95 993.61 1342.55C995.194 1360.36 996.297 1377.17 996.553 1391.02C996.813 1405.12 996.166 1415.39 994.608 1420.61L1005.15 1423.76ZM929.531 1534.47C940.444 1521.57 957.273 1500.63 972.351 1479.69C979.888 1469.23 987.03 1458.7 992.786 1449.14C998.485 1439.68 1003.04 1430.82 1005.15 1423.76L994.608 1420.61C992.916 1426.28 988.966 1434.16 983.363 1443.47C977.818 1452.68 970.863 1462.94 963.424 1473.27C948.548 1493.92 931.903 1514.63 921.132 1527.37L929.531 1534.47ZM1596.54 1472.57C1609.22 1488.31 1636.48 1529.59 1644.46 1568.51L1655.24 1566.3C1646.74 1524.87 1618.24 1481.97 1605.11 1465.67L1596.54 1472.57ZM1567.29 1365.86C1568.94 1404.87 1587.06 1452.53 1595.84 1471.43L1605.81 1466.8C1597.23 1448.32 1579.83 1402.23 1578.28 1365.4L1567.29 1365.86ZM1571.29 1187.11C1569.3 1230.64 1565.67 1327.64 1567.29 1365.86L1578.28 1365.4C1576.69 1327.77 1580.28 1231.32 1582.28 1187.61L1571.29 1187.11ZM1574.18 1193.09L1577.23 1192.84L1576.35 1181.88L1573.3 1182.12L1574.18 1193.09ZM1569.17 1184.54C1534.3 1236.6 1466.61 1308.27 1432.2 1344.68L1440.2 1352.24C1474.37 1316.07 1542.81 1243.65 1578.31 1190.66L1569.17 1184.54ZM1432.2 1344.68C1426.51 1350.72 1421.71 1355.79 1418.16 1359.61L1426.23 1367.09C1429.74 1363.31 1434.49 1358.29 1440.2 1352.24L1432.2 1344.68ZM1159.13 1384.02C1065.97 1325.41 1018.65 1271.81 991.245 1236.67L982.571 1243.43C1010.61 1279.38 1058.84 1333.92 1153.27 1393.33L1159.13 1384.02ZM1752.78 724.367C1756.17 723.273 1758.9 722.629 1760.87 722.41C1761.85 722.301 1762.46 722.32 1762.77 722.362C1763.13 722.409 1762.76 722.438 1762.2 721.992L1769.07 713.399C1767.49 712.138 1765.68 711.652 1764.23 711.458C1762.73 711.259 1761.16 711.31 1759.65 711.477C1756.63 711.812 1753.11 712.702 1749.4 713.9L1752.78 724.367ZM1770.98 718.978C1786.11 655.896 1795.92 558.822 1791.75 462.72C1787.6 366.84 1769.5 270.735 1727.88 210.444L1718.83 216.693C1758.6 274.305 1776.63 367.746 1780.76 463.196C1784.89 558.424 1775.14 654.461 1760.29 716.413L1770.98 718.978ZM1727.88 210.444C1686.84 150.977 1622.44 108.475 1559.3 78.1051C1496.1 47.7027 1433.6 29.2012 1395.95 18.0499L1392.83 28.597C1430.48 39.7498 1492.21 58.0394 1554.53 88.0179C1616.92 118.029 1679.35 159.498 1718.83 216.693L1727.88 210.444ZM1395.95 18.0499L1393.58 17.3486L1390.46 27.8956L1392.82 28.5969L1395.95 18.0499ZM1393.58 17.3487C1355.87 6.17324 1305.51 1.85089 1260.76 1.05836C1216.02 0.266214 1176.12 2.99234 1159.18 6.23076L1161.25 17.0351C1177.07 14.0098 1216.08 11.269 1260.56 12.0566C1305.02 12.8439 1354.19 17.148 1390.46 27.8954L1393.58 17.3487ZM1159.18 6.23076C1147.77 8.41278 1136.89 15.7225 1127.14 24.2232C1117.31 32.7976 1108 43.1715 1099.86 52.2213L1108.05 59.5738C1116.27 50.4261 1125.13 40.57 1134.37 32.5126C1143.69 24.3814 1152.76 18.6576 1161.25 17.0351L1159.18 6.23076ZM1099.86 52.2213C1094.54 58.1463 1089.77 63.4482 1085.54 67.5629C1081.13 71.8451 1078.01 74.1181 1076.02 74.8173L1079.66 85.1962C1084.17 83.6126 1088.82 79.7122 1093.21 75.4511C1097.76 71.0224 1102.8 65.4112 1108.05 59.5738L1099.86 52.2213ZM1076.02 74.8173C1074.47 75.3602 1071.2 75.6382 1065.66 75.4145C1060.35 75.2005 1053.8 74.5846 1046.18 73.8656L1045.15 84.817C1052.67 85.5264 1059.55 86.177 1065.21 86.4056C1070.64 86.6244 1075.89 86.5209 1079.66 85.1962L1076.02 74.8173ZM1046.18 73.8656C1030.21 72.3599 1010.01 70.4468 989.396 71.3588C968.801 72.2698 947.33 76.0107 928.921 86.128L934.218 95.7681C950.547 86.7943 970.118 83.2223 989.882 82.348C1009.63 81.4746 1029.1 83.3036 1045.15 84.817L1046.18 73.8656ZM928.921 86.128C890.687 107.14 866.924 150.191 854.609 172.358L864.225 177.7C876.81 155.047 899.206 115.01 934.218 95.7681L928.921 86.128ZM854.609 172.358C852.103 176.87 850.137 180.405 848.582 182.866C847.798 184.107 847.24 184.88 846.873 185.306C846.69 185.519 846.665 185.515 846.789 185.418C846.864 185.36 847.443 184.905 848.456 184.724L850.4 195.55C851.856 195.289 852.925 194.581 853.538 194.105C854.2 193.591 854.759 193.006 855.21 192.482C856.109 191.437 857.009 190.123 857.883 188.74C859.642 185.954 861.784 182.095 864.225 177.7L854.609 172.358ZM848.456 184.724C847.398 184.914 846.286 185.354 845.455 185.71C844.496 186.12 843.375 186.655 842.143 187.281C839.671 188.537 836.558 190.257 833.039 192.322C825.996 196.455 817.166 202.066 808.341 208.313C799.534 214.546 790.614 221.496 783.457 228.312C776.539 234.9 770.42 242.135 768.464 248.981L779.04 252.003C780.107 248.272 784.179 242.814 791.043 236.278C797.667 229.969 806.119 223.362 814.696 217.291C823.255 211.233 831.821 205.792 838.607 201.809C842.003 199.815 844.913 198.212 847.125 197.088C848.235 196.524 849.122 196.105 849.779 195.824C850.565 195.488 850.679 195.5 850.4 195.55L848.456 184.724ZM768.464 248.981C766.181 256.969 766.753 264.173 767.266 271.223L778.237 270.425C777.708 263.155 777.371 257.846 779.04 252.003L768.464 248.981ZM767.266 271.223C767.798 278.539 768.351 286.292 766.569 296.572C764.783 306.879 760.595 319.981 751.298 337.603L761.027 342.736C770.741 324.323 775.384 310.123 777.407 298.451C779.435 286.752 778.777 277.85 778.237 270.425L767.266 271.223ZM751.298 337.603C736.596 365.47 731.33 401.146 730.154 434.461C728.974 467.893 731.901 499.586 734.014 519.802L744.954 518.659C742.853 498.55 739.996 467.482 741.147 434.849C742.303 402.1 747.483 368.408 761.027 342.736L751.298 337.603ZM734.014 519.802C735.745 536.365 743.255 570.613 751.806 606.289C760.395 642.126 770.151 679.867 776.515 703.686L787.142 700.847C780.796 677.096 771.065 639.449 762.503 603.725C753.902 567.84 746.595 534.355 744.954 518.659L734.014 519.802ZM787.327 702.138C787.341 702.715 787.209 703.475 786.746 704.22C786.276 704.975 785.662 705.4 785.218 705.602C784.517 705.92 784.489 705.602 786.033 705.887C788.979 706.43 794.863 708.631 805.245 714.772L810.845 705.304C800.206 699.011 792.951 695.977 788.028 695.069C785.637 694.628 782.992 694.53 780.667 695.587C779.41 696.158 778.231 697.082 777.404 698.412C776.583 699.732 776.301 701.144 776.33 702.395L787.327 702.138ZM806.531 715.326C808.69 715.944 811.238 717.518 814.118 720.434C816.975 723.327 819.916 727.297 822.888 732.253C828.836 742.172 834.558 755.445 839.854 770.396C850.432 800.258 859.016 835.951 864.303 862.762L875.096 860.634C869.752 833.539 861.046 797.277 850.223 766.723C844.818 751.467 838.811 737.417 832.322 726.596C829.076 721.182 825.621 716.427 821.945 712.705C818.291 709.005 814.168 706.07 809.559 704.751L806.531 715.326ZM869.597 867.197L872.948 867.26L873.154 856.262L869.802 856.199L869.597 867.197ZM878.529 862.255C882.982 812.856 885.314 703.498 882.329 665.06L871.362 665.911C874.285 703.552 871.991 812.261 867.573 861.267L878.529 862.255ZM899.691 593.619C911.176 580.167 927.317 573.521 953.531 562.943L949.415 552.742C923.922 563.029 904.907 570.568 891.325 586.477L899.691 593.619ZM953.531 562.943C970.289 556.182 990.698 547.947 1015.49 535.303L1010.5 525.503C986.167 537.911 966.146 545.991 949.415 552.742L953.531 562.943ZM1015.49 535.303C1042.7 521.431 1072.98 496.406 1104.31 470.562L1097.31 462.077C1065.64 488.206 1036.38 512.303 1010.5 525.503L1015.49 535.303ZM1104.31 470.562C1147.19 435.183 1192.24 398.1 1236.43 381.92L1232.65 371.591C1186.32 388.553 1139.73 427.076 1097.31 462.077L1104.31 470.562ZM1637.55 875.076C1637.55 875.369 1637.54 875.672 1637.53 875.989L1648.52 876.31C1648.53 875.983 1648.54 875.655 1648.55 875.331L1637.55 875.076ZM1642.92 881.648L1643.61 881.661L1643.82 870.663L1643.13 870.65L1642.92 881.648ZM1649.18 876.803C1651.79 854.503 1656.36 826.61 1663.12 802.367C1666.51 790.24 1670.4 779.181 1674.8 770.246C1679.26 761.192 1683.96 754.898 1688.66 751.629L1682.38 742.597C1675.39 747.454 1669.68 755.74 1664.93 765.388C1660.12 775.155 1656.01 786.921 1652.53 799.41C1645.55 824.4 1640.91 852.905 1638.25 875.522L1649.18 876.803ZM1688.66 751.629C1695.11 747.143 1701.08 742.808 1706.55 738.84L1700.09 729.938C1694.61 733.913 1688.73 738.184 1682.38 742.597L1688.66 751.629ZM1706.55 738.84C1718.44 730.209 1727.56 723.618 1734.64 720.26C1738.16 718.589 1740.56 718.031 1742.15 718.078C1743.39 718.114 1744.27 718.496 1745.22 719.679L1753.82 712.825C1750.87 709.128 1746.97 707.215 1742.47 707.083C1738.33 706.961 1734.05 708.361 1729.92 710.321C1721.69 714.224 1711.6 721.581 1700.09 729.938L1706.55 738.84ZM1745.22 719.679C1745.37 719.874 1745.65 720.31 1745.96 721.125L1756.22 717.142C1755.63 715.641 1754.87 714.139 1753.82 712.825L1745.22 719.679ZM1178.21 1187.36C1176.93 1192.71 1176.93 1192.71 1176.93 1192.71C1176.93 1192.71 1176.93 1192.71 1176.93 1192.71C1176.93 1192.71 1176.94 1192.71 1176.94 1192.71C1176.95 1192.71 1176.96 1192.72 1176.97 1192.72C1177 1192.73 1177.04 1192.74 1177.1 1192.75C1177.2 1192.77 1177.36 1192.81 1177.56 1192.86C1177.97 1192.95 1178.57 1193.09 1179.35 1193.27C1180.89 1193.62 1183.14 1194.13 1185.94 1194.73C1191.53 1195.93 1199.36 1197.53 1208.29 1199.12C1226.04 1202.3 1248.5 1205.5 1266.42 1205.37L1266.34 1194.37C1249.48 1194.49 1227.86 1191.45 1210.22 1188.3C1201.45 1186.73 1193.75 1185.16 1188.25 1183.97C1185.5 1183.38 1183.3 1182.89 1181.79 1182.55C1181.04 1182.37 1180.46 1182.24 1180.07 1182.15C1179.87 1182.1 1179.72 1182.07 1179.63 1182.04C1179.58 1182.03 1179.54 1182.02 1179.52 1182.02C1179.51 1182.02 1179.5 1182.01 1179.49 1182.01C1179.49 1182.01 1179.49 1182.01 1179.49 1182.01C1179.49 1182.01 1179.49 1182.01 1179.49 1182.01C1179.49 1182.01 1179.49 1182.01 1178.21 1187.36ZM1266.42 1205.37C1283.47 1205.25 1304.81 1202.04 1321.69 1198.93C1330.17 1197.37 1337.6 1195.82 1342.92 1194.65C1345.58 1194.07 1347.71 1193.59 1349.18 1193.25C1349.91 1193.08 1350.48 1192.94 1350.87 1192.85C1351.07 1192.8 1351.21 1192.77 1351.32 1192.74C1351.37 1192.73 1351.4 1192.72 1351.43 1192.72C1351.44 1192.71 1351.46 1192.71 1351.46 1192.71C1351.47 1192.71 1351.47 1192.71 1351.47 1192.71C1351.47 1192.71 1351.47 1192.71 1351.47 1192.71C1351.47 1192.71 1351.47 1192.71 1350.18 1187.36C1348.89 1182.01 1348.89 1182.01 1348.89 1182.01C1348.89 1182.01 1348.89 1182.01 1348.89 1182.01C1348.89 1182.01 1348.88 1182.01 1348.88 1182.02C1348.88 1182.02 1348.87 1182.02 1348.86 1182.02C1348.83 1182.03 1348.8 1182.03 1348.75 1182.05C1348.66 1182.07 1348.52 1182.1 1348.33 1182.15C1347.96 1182.23 1347.41 1182.36 1346.7 1182.53C1345.26 1182.86 1343.18 1183.34 1340.56 1183.91C1335.34 1185.05 1328.03 1186.58 1319.69 1188.12C1302.93 1191.2 1282.38 1194.26 1266.34 1194.37L1266.42 1205.37ZM986.165 827.765L1070.32 835.003L1071.26 824.044L987.107 816.806L986.165 827.765ZM1071.28 835.002L1159.1 827.125L1158.12 816.169L1070.3 824.045L1071.28 835.002ZM1333.48 824.31L1417.63 831.548L1418.57 820.589L1334.42 813.351L1333.48 824.31ZM1418.59 831.546L1506.41 823.67L1505.43 812.714L1417.61 820.59L1418.59 831.546ZM1246.55 864.89L1230.74 1032.08L1241.69 1033.12L1257.5 865.926L1246.55 864.89ZM1233.59 1037.44L1262.05 1052.87L1267.29 1043.2L1238.83 1027.77L1233.59 1037.44Z" fill="black"/>
</svg>
